<?xml version="1.0" ?><svg height="24px" fill="#005590" id="Layer_1" style="enable-background:new 0 0 24 24;" version="1.1" viewBox="0 0 24 24" width="24px" xml:space="preserve" xmlns="http://www.w3.org/2000/svg" xmlns:xlink="http://www.w3.org/1999/xlink"><polygon points="6.0000076,22 7.4141922,20.5857544 4.8141847,17.9999924 7.4141769,15.4141846 5.9999924,14 2,17.9999924 "/><path d="M5,13H3V8c0-1.6542969,1.3457031-3,3-3h14v2H6C5.4487305,7,5,7.4482422,5,8V13z"/><path d="M18,19H4v-2h14c0.5512695,0,1-0.4482422,1-1v-5h2v5C21,17.6542969,19.6542969,19,18,19z"/><polygon points="17.9999924,2 16.5858078,3.4142456 19.1858158,6.0000076 16.5858231,8.5858154 18.0000076,10 22,6.0000076 "/></svg>